# xmcd CD database file
#
# Track frame offsets:
#	150
#	30494
#	58519
#	81859
#	103899
#	133967
#	166635
#	197644
#	229555
#	241894
#
# Disc length: 3806 seconds
#
# Revision: 0
# Processed by: cddbd v1.5.2PL0 Copyright (c) Steve Scherf et al.
# Submitted via: CDex 1.51
#
DISCID=790edc0a
DTITLE=Dan Gibson - Blue Sky Classics
DYEAR=2008
DGENRE=New Age
TTITLE0=Prelude in C Major from The Well Tempered Clavier - J.S. Bach
TTITLE1=Adagio from Violin Sonata No.5 in F Major, Op.24. Spring - Beethoven
TTITLE2=Largo from Symphony No.88 in G Major - Haydn
TTITLE3=Preludes, Book 1. No.8. Girl with the Flaxen Hair - Debussy
TTITLE4=Larghetto from Piano Concerto No.2 in F Minor, Op.21 - Chopin
TTITLE5=Adagio from Violin Concerto No.2 in G Major - Mozart
TTITLE6=Larghetto from Symphony No.1 in B Flat Major, Op.38. Spring - Schumann
TTITLE7=Andante from String Quartet No.12 in C Minor - Schubert
TTITLE8=Adagio from Sonata No.6, Op.1 - Corelli
TTITLE9=Andante Cantabile from String Quartet No,1 in D Major, Op.11 - Tchaikovsky
EXTD=YEAR: 2008
EXTT0=
EXTT1=
EXTT2=
EXTT3=
EXTT4=
EXTT5=
EXTT6=
EXTT7=
EXTT8=
EXTT9=
PLAYORDER=
